HIERARCHY
ROOT hip
{
	OFFSET 0.000000 0.000000 0.000000 
	CHANNELS 6 Xposition Yposition Zposition Xrotation Zrotation Yrotation
	JOINT abdomen
	{
		OFFSET 0.000000 3.402643 0.000000 
		CHANNELS 3 Xrotation Zrotation Yrotation
		JOINT chest
		{
			OFFSET 0.000000 8.438565 -0.680529 
			CHANNELS 3 Xrotation Zrotation Yrotation
			JOINT neck
			{
				OFFSET 0.000000 10.207942 -0.272212 
				CHANNELS 3 Xrotation Zrotation Yrotation
				JOINT head
				{
					OFFSET 0.000000 3.130431 0.000000 
					CHANNELS 3 Xrotation Zrotation Yrotation
					End Site
					{
						OFFSET 0.000000 3.130435 0.000000 
					}
				}
			}
			JOINT lCollar
			{
				OFFSET 3.470700 6.669187 -0.816635 
				CHANNELS 3 Yrotation Zrotation Xrotation
				JOINT lShldr
				{
					OFFSET 3.198488 0.000000 0.000000 
					CHANNELS 3 Zrotation Yrotation Xrotation
					JOINT lForeArm
					{
						OFFSET 10.139888 0.000000 0.000000 
						CHANNELS 3 Yrotation Zrotation Xrotation
						JOINT lHand
						{
							OFFSET 8.370511 0.000000 0.000000 
							CHANNELS 3 Zrotation Yrotation Xrotation
							End Site
							{
								OFFSET 4.083176 0.000000 0.000000 
							}
						}
					}
				}
			}
			JOINT rCollar
			{
				OFFSET -3.470700 6.669187 -0.816635 
				CHANNELS 3 Yrotation Zrotation Xrotation
				JOINT rShldr
				{
					OFFSET -3.198488 0.000000 0.000000 
					CHANNELS 3 Zrotation Yrotation Xrotation
					JOINT rForeArm
					{
						OFFSET -10.139888 0.000000 0.000000 
						CHANNELS 3 Yrotation Zrotation Xrotation
						JOINT rHand
						{
							OFFSET -8.370511 0.000000 0.000000 
							CHANNELS 3 Zrotation Yrotation Xrotation
							End Site
							{
								OFFSET -4.083176 0.000000 0.000000 
							}
						}
					}
				}
			}
		}
	}
	JOINT lThigh
	{
		OFFSET 5.308129 -1.633274 1.361059 
		CHANNELS 3 Xrotation Zrotation Yrotation
		JOINT lShin
		{
			OFFSET -2.041588 -20.007561 0.000000 
			CHANNELS 3 Xrotation Zrotation Yrotation
			JOINT lFoot
			{
				OFFSET 0.000000 -19.190928 -1.224953 
				CHANNELS 3 Xrotation Yrotation Zrotation
				End Site
				{
					OFFSET 0.000000 -2.449906 4.627600 
				}
			}
		}
	}
	JOINT rThigh
	{
		OFFSET -5.308129 -1.633274 1.361059 
		CHANNELS 3 Xrotation Zrotation Yrotation
		JOINT rShin
		{
			OFFSET 2.041588 -20.007561 0.000000 
			CHANNELS 3 Xrotation Zrotation Yrotation
			JOINT rFoot
			{
				OFFSET 0.000000 -19.190928 -1.224953 
				CHANNELS 3 Xrotation Yrotation Zrotation
				End Site
				{
					OFFSET 0.000000 -2.449906 4.627600 
				}
			}
		}
	}
}
MOTION
Frames: 11
Frame Time: 0.033333
0.316188 52.506439 -2.354032 2.460938 -1.582031 157.226303 29.353285 -24.102636 7.259981 -19.492189 11.025393 9.052734 51.063168 8.107644 2.471410 -82.988281 -9.863280 -22.706753 2.000000 -2.000000 0.000000 -78.750000 40.283207 13.463346 -94.662079 0.245722 -2.885959 61.369709 18.333321 31.131414 -2.000000 2.000000 0.000000 72.910156 3.095703 -16.601034 73.728081 0.405069 -2.975389 -31.742502 -40.451019 38.830471 -22.904526 12.013893 24.396126 20.154074 -4.989813 -1.973441 16.315031 7.708857 1.113241 5.647532 -0.439128 -26.190086 11.076144 5.236615 0.990009 -5.805484 3.117979 -11.118815 
0.568601 52.341000 -4.754761 0.703125 -1.582031 157.802460 26.562309 -23.020468 7.492152 -21.064453 11.972657 8.701174 51.063168 8.107644 2.471410 -78.720703 -10.371093 -21.865234 2.000000 -2.000000 0.000000 -79.277344 44.296875 14.791975 -96.244370 0.303653 -2.899098 61.433960 18.561613 30.009850 -2.000000 2.000000 0.000000 74.072266 4.042969 -14.120404 66.887634 0.991306 -2.794808 -29.931580 -43.512863 37.783451 -19.100664 9.559574 25.267365 6.580325 -5.280384 -0.808767 18.080366 4.903538 2.160725 6.163054 -0.809633 -26.408880 12.863856 5.156619 1.298571 -7.811401 2.951683 -10.474227 
0.634410 52.175552 -7.104717 -1.240234 -1.767578 158.564148 23.767469 -21.948526 7.776215 -22.128906 12.363283 8.175920 51.063168 8.107644 2.471410 -74.902344 -10.400390 -21.093754 2.000000 -2.000000 0.000000 -78.935547 46.884769 16.755177 -98.002426 0.381082 -2.913368 61.520226 18.409620 29.014736 -2.000000 2.000000 0.000000 74.736328 3.750000 -11.816405 61.960049 1.029025 -2.939300 -28.978519 -45.849792 37.840042 -15.620962 7.094174 26.064646 -3.778271 -5.160119 0.133105 17.999544 2.255713 2.794624 6.319528 -1.346864 -26.274702 15.138834 5.081211 1.480657 -8.146650 2.851835 -9.782059 
0.415293 51.986488 -9.254760 -3.007812 -1.767578 159.150085 21.309555 -20.750322 8.169106 -21.972656 11.660156 7.421876 51.063168 8.107644 2.471410 -72.763672 -9.423827 -19.864882 2.000000 -2.000000 0.000000 -78.935547 46.044918 17.116405 -99.760750 0.457947 -2.937384 61.329872 17.509708 28.775686 -2.000000 2.000000 0.000000 73.505859 3.417969 -10.761135 59.503719 1.243091 -2.750912 -26.857924 -48.281761 36.445557 -13.354207 5.491051 26.547209 -8.903785 -5.270683 0.532254 15.267541 -0.411296 3.044904 5.985901 -2.373320 -26.558395 17.602089 4.942785 1.677142 -7.611961 2.942554 -9.008108 
0.418321 51.726513 -10.838456 -4.404297 -1.767578 159.892563 18.778740 -19.325731 8.919635 -18.378906 8.193360 5.576172 51.063168 8.107644 2.471410 -73.525391 -6.015625 -18.418991 2.000000 -2.000000 0.000000 -77.763672 42.900391 15.075007 -101.684708 0.701115 -2.961269 61.630539 16.312634 29.294050 -2.000000 2.000000 0.000000 72.519531 4.814453 -10.751134 58.791447 0.950301 -2.425442 -25.509129 -50.346802 35.377846 -18.707127 7.905678 25.658800 5.169733 -5.284110 -0.680928 8.423284 -1.039065 2.739466 5.354071 -3.658099 -26.845848 21.447433 4.443631 1.891913 -5.755262 2.438878 -8.889741 
0.327396 51.482281 -12.452947 -5.458984 -1.767578 160.634460 16.548532 -17.829655 9.896562 -12.939453 3.203125 2.822811 51.063168 8.107644 2.471410 -76.152344 -1.318359 -16.650393 2.000000 -2.000000 0.000000 -75.849609 38.417969 10.924038 -103.091309 0.583559 -2.964227 63.033417 15.858092 28.100283 -2.000000 2.000000 0.000000 73.759766 6.191406 -9.950117 60.034508 1.093882 -2.876879 -25.739017 -50.040123 34.862617 -19.985487 7.953325 25.218855 11.526375 -5.205131 -1.210264 4.715545 -1.265737 2.437720 4.576225 -5.377634 -26.786572 25.336617 4.184301 2.157086 -1.743246 1.732366 -8.779064 
-0.039633 51.482281 -14.295157 -5.830078 -1.582031 161.347382 16.457420 -16.334736 9.603860 -9.833984 0.595703 0.859477 51.063168 8.107644 2.471410 -78.906250 1.279297 -13.945313 2.000000 -2.000000 0.000000 -75.517578 34.375000 7.085592 -103.623665 0.427170 -3.131088 67.340134 16.079838 24.058517 -2.000000 2.000000 0.000000 75.771484 4.541015 -6.240235 62.839245 0.979995 -2.599730 -25.617468 -47.681492 32.858761 -19.052568 7.001997 25.747873 13.283339 -5.126787 -1.379472 3.142907 -2.221166 2.679477 2.675009 -8.105000 -26.391546 30.111322 4.389480 2.300404 6.911898 1.083927 -9.179168 
-0.366370 51.742264 -15.317404 -5.302734 -1.425781 162.197021 18.954000 -14.872063 7.430682 -11.220704 1.464844 0.439453 51.063168 8.107644 2.471410 -80.917969 0.537110 -10.126878 2.000000 -2.000000 0.000000 -78.017578 30.556641 4.721764 -103.799713 0.436356 -3.141397 73.146507 17.460100 19.009911 -2.000000 2.000000 0.000000 74.873047 -0.419922 -0.839844 66.348198 0.859478 -2.714429 -26.488791 -44.606716 30.697281 -17.581766 6.096787 25.740536 13.138240 -5.178715 -1.352788 2.776730 -2.067610 2.584898 -2.091182 -11.791986 -25.129034 36.430435 4.057575 2.736971 26.505451 -0.315018 -9.667637 
-0.716156 51.529549 -15.712811 -4.052734 -1.240234 162.832031 22.849081 -13.175314 4.449196 -14.492188 3.925782 0.634766 51.063168 8.107644 2.471410 -82.890625 -1.523437 -5.420182 2.000000 -2.000000 0.000000 -80.458984 27.558594 3.447266 -104.668472 0.641655 -3.143494 75.061050 19.633591 16.792595 -2.000000 2.000000 0.000000 72.470703 -6.367188 5.028214 70.567490 0.860609 -2.733919 -27.338699 -40.642796 28.284058 -16.390488 5.364209 26.235252 14.177571 -5.164624 -1.447898 1.934263 -1.775710 2.671718 -7.772728 -14.640823 -22.769773 44.496155 3.554250 3.419037 31.769245 -2.779764 -7.379371 
-1.072424 51.277458 -15.752967 -2.314453 -1.064453 163.505676 27.034706 -11.358683 1.371012 -18.447266 6.640626 0.694489 51.063168 8.107644 2.471410 -85.107422 -3.476562 -0.361328 2.000000 -2.000000 0.000000 -81.611328 26.455080 2.641071 -107.315826 0.571720 -3.168783 72.741051 22.700588 19.284666 -2.000000 2.000000 0.000000 69.091797 -12.490233 10.917969 74.970543 0.721292 -2.692963 -28.670689 -36.067936 26.381216 -16.204298 4.992420 26.821087 17.697674 -5.068969 -1.760853 0.265514 -1.781714 2.407817 -15.281997 -17.526257 -19.698475 54.850761 2.784720 3.978742 31.781467 -6.169221 -2.759785 
-1.442430 50.985966 -15.840796 -0.361328 -0.878906 164.355469 30.933176 -9.363613 -1.551906 -21.201174 8.837891 0.673828 51.063168 8.107644 2.471410 -88.310547 -4.716797 4.414062 2.000000 -2.000000 0.000000 -80.625000 26.025391 2.236328 -110.826004 0.884659 -3.001250 67.603271 26.728008 23.485657 -2.000000 2.000000 0.000000 66.152344 -17.119141 15.332033 79.358124 0.561208 -2.800128 -30.946272 -32.011684 24.899717 -15.699648 4.839857 26.486300 20.661436 -4.970490 -2.012717 -0.412028 -1.256814 1.944694 -23.463678 -19.673061 -16.904184 64.313324 2.031181 4.340299 31.063919 -7.887183 0.702450 
